<svg width="924" height="924" viewBox="0 0 924 924" fill="none" xmlns="http://www.w3.org/2000/svg">
<rect x="257.12" y="336.397" width="76.8295" height="360.603" rx="38.4147" fill="#1E90FF"/>
<rect x="57.6106" y="394.639" width="667.921" height="76.8295" fill="#1E90FF"/>
<rect x="13" y="350.028" width="76.8295" height="154.898" rx="38.4147" fill="#1979D6"/>
<rect x="358.733" y="336.397" width="76.8295" height="360.603" rx="38.4147" fill="#1E90FF"/>
<rect x="460.346" y="336.397" width="76.8295" height="360.603" rx="38.4147" fill="#1E90FF"/>
<path d="M857.759 220.157L704.488 394.219L704.488 394.219C692.201 408.172 686.058 415.149 683.73 423.006C681.679 429.929 681.689 437.3 683.758 444.217C686.106 452.069 692.267 459.03 704.589 472.951L704.589 472.951L857.754 645.996C863.445 652.426 871.619 656.107 880.205 656.107C896.763 656.107 910.187 642.683 910.187 626.125V239.95C910.187 223.409 896.778 210 880.237 210C871.633 210 863.445 213.7 857.759 220.157Z" fill="#1979D6"/>
<path fill-rule="evenodd" clip-rule="evenodd" d="M249.685 394.639C173.034 394.639 110.896 456.776 110.896 533.427C110.896 610.078 173.034 672.216 249.685 672.216H543.371C620.022 672.216 682.16 610.078 682.16 533.427C682.16 456.776 620.022 394.639 543.371 394.639L249.685 394.639ZM249.685 472.708C216.15 472.708 188.965 499.893 188.965 533.428C188.965 566.962 216.15 594.148 249.685 594.148H544.611C578.146 594.148 605.331 566.962 605.331 533.428C605.331 499.893 578.146 472.708 544.611 472.708L249.685 472.708Z" fill="#1E90FF"/>
</svg>
